<svg width="146" height="69" viewBox="0 0 146 69" fill="none" xmlns="http://www.w3.org/2000/svg">
<path d="M38.025 54.0001H27.225L15.975 36.0001L10.125 41.8501V54.0001H0.824951V0.600098H10.125V31.3501L25.875 15.3001H37.125L22.5 29.9251L38.025 54.0001Z" fill="black"/>
<path d="M63.0134 25.0501L66.1634 15.3001H76.0634L61.1384 57.1501C59.5384 61.5501 57.5384 64.5751 55.1384 66.2251C52.6884 67.9251 49.1384 68.7751 44.4884 68.7751C42.9384 68.7751 41.5634 68.7001 40.3634 68.5501V61.1251H43.9634C46.0134 61.1251 47.5884 60.5501 48.6884 59.4001C49.7884 58.2501 50.3384 56.7501 50.3384 54.9001C50.3384 53.0501 49.7384 50.4501 48.5384 47.1001L37.2884 15.3001H47.4884L50.6384 24.9751C52.8384 31.8751 54.8884 39.0751 56.7884 46.5751C58.2884 40.9251 60.3634 33.7501 63.0134 25.0501Z" fill="black"/>
<path d="M105.695 20.3251V0.600098H115.145V54.0001H105.995V48.6001C103.145 52.8001 99.0705 54.9001 93.7705 54.9001C88.4205 54.9001 84.1955 53.0501 81.0955 49.3501C77.9455 45.6501 76.3705 40.7501 76.3705 34.6501C76.3705 28.4501 77.9455 23.5251 81.0955 19.8751C84.1455 16.2251 88.3705 14.4001 93.7705 14.4001C98.9705 14.4001 102.945 16.3751 105.695 20.3251ZM86.0455 34.9501C86.0455 38.9501 86.9205 41.9751 88.6705 44.0251C90.4205 46.0751 92.8455 47.1001 95.9455 47.1001C99.0455 47.1001 101.495 46.0251 103.295 43.8751C105.045 41.7251 105.92 38.6501 105.92 34.6501C105.92 30.6501 105.045 27.5751 103.295 25.4251C101.545 23.2751 99.0955 22.2001 95.9455 22.2001C92.8955 22.2001 90.4705 23.3251 88.6705 25.5751C86.9205 27.8251 86.0455 30.9501 86.0455 34.9501Z" fill="black"/>
<path d="M144.798 28.2001L135.698 40.7501L145.298 54.0001H138.098L137.148 52.6501C135.515 50.2501 134.615 48.9334 134.448 48.7001C133.148 46.8668 132.382 45.7501 132.148 45.3501C129.782 48.7834 128.098 51.2168 127.098 52.6501L126.148 54.0001H119.098L128.698 40.8001L119.598 28.2001H126.798L128.148 30.1001C129.915 32.6001 131.298 34.6334 132.298 36.2001C133.932 33.7334 135.298 31.7001 136.398 30.1001L137.748 28.2001H144.798Z" fill="black"/>
</svg>
